<svg width="42" height="42" viewBox="0 0 42 42" fill="none" xmlns="http://www.w3.org/2000/svg">
<path d="M33.5 16.8333C35.1482 16.8333 36.7593 16.3446 38.1297 15.4289C39.5002 14.5132 40.5683 13.2117 41.199 11.689C41.8297 10.1663 41.9947 8.49072 41.6732 6.87421C41.3517 5.2577 40.558 3.77284 39.3925 2.60741C38.2271 1.44197 36.7423 0.648296 35.1257 0.326752C33.5092 0.00520886 31.8337 0.170237 30.311 0.800967C28.7883 1.4317 27.4868 2.4998 26.5711 3.87021C25.6554 5.24062 25.1667 6.85179 25.1667 8.49996C25.1667 10.7101 26.0446 12.8297 27.6074 14.3925C29.1702 15.9553 31.2899 16.8333 33.5 16.8333ZM33.5 4.3333C34.3241 4.3333 35.1297 4.57767 35.8149 5.03551C36.5001 5.49335 37.0341 6.14409 37.3495 6.90545C37.6649 7.66681 37.7474 8.50459 37.5866 9.31284C37.4258 10.1211 37.029 10.8635 36.4463 11.4462C35.8636 12.029 35.1211 12.4258 34.3129 12.5866C33.5046 12.7473 32.6668 12.6648 31.9055 12.3495C31.1441 12.0341 30.4934 11.5 30.0355 10.8148C29.5777 10.1296 29.3333 9.32405 29.3333 8.49996C29.3333 7.3949 29.7723 6.33509 30.5537 5.55368C31.3351 4.77228 32.3949 4.3333 33.5 4.3333ZM31.1042 21.9791C30.9173 21.6777 30.6566 21.4289 30.3467 21.2563C30.0368 21.0838 29.688 20.9933 29.3333 20.9933C28.9786 20.9933 28.6298 21.0838 28.3199 21.2563C28.0101 21.4289 27.7493 21.6777 27.5625 21.9791L25.4792 25.375L18.625 13.7083C18.4405 13.3974 18.1784 13.1399 17.8642 12.961C17.5501 12.7821 17.1948 12.6881 16.8333 12.6881C16.4718 12.6881 16.1166 12.7821 15.8024 12.961C15.4883 13.1399 15.2261 13.3974 15.0417 13.7083L0.458335 38.7083C0.276007 39.0241 0.179756 39.3822 0.179202 39.7468C0.178648 40.1115 0.27381 40.4699 0.455178 40.7862C0.636545 41.1026 0.897765 41.3658 1.21273 41.5495C1.52769 41.7332 1.88537 41.8311 2.25 41.8333H39.75C40.1222 41.834 40.4879 41.735 40.8089 41.5466C41.1299 41.3581 41.3946 41.0871 41.5753 40.7617C41.7561 40.4363 41.8464 40.0684 41.8368 39.6963C41.8272 39.3242 41.7181 38.9615 41.5208 38.6458L31.1042 21.9791ZM17.7708 37.6666H5.875L16.8333 18.9166L22.9583 29.3333L20.3542 33.5L17.7708 37.6666ZM22.6667 37.6666L25.7708 32.7291L27.25 30.5208L29.3333 27.0208L36 37.6666H22.6667Z" fill="#06152A"/>
</svg>
