<svg width="20" height="20" viewBox="0 0 20 20" fill="none" xmlns="http://www.w3.org/2000/svg">
<path d="M10.625 18.125C10.5415 18.125 10.4589 18.1084 10.382 18.0759C10.3051 18.0435 10.2354 17.996 10.1772 17.9362C10.1189 17.8764 10.0732 17.8056 10.0428 17.7278C10.0124 17.6501 9.99781 17.5671 10 17.4836V10.3176C10 10.2347 9.96707 10.1552 9.90847 10.0966C9.84986 10.038 9.77038 10.0051 9.6875 10.0051H2.51601C2.38456 10.0067 2.25584 9.96751 2.14751 9.89303C2.03918 9.81854 1.95655 9.71238 1.91094 9.58908C1.85899 9.44204 1.86389 9.2809 1.92468 9.13729C1.98546 8.99368 2.09773 8.87798 2.23945 8.81291L17.2395 1.93205C17.3553 1.87895 17.4847 1.86256 17.6102 1.88507C17.7356 1.90758 17.8512 1.96792 17.9414 2.05799C18.0316 2.14806 18.0921 2.26357 18.1148 2.389C18.1375 2.51444 18.1213 2.64382 18.0684 2.75978L11.1934 17.7598C11.1436 17.8687 11.0635 17.9611 10.9628 18.0258C10.862 18.0906 10.7448 18.125 10.625 18.125Z" fill="black"/>
</svg>
