<svg width="25" height="25" viewBox="0 0 25 25" fill="none" xmlns="http://www.w3.org/2000/svg">
<path d="M7.42188 12.5C9.3635 12.5 10.9375 10.926 10.9375 8.98438C10.9375 7.04275 9.3635 5.46875 7.42188 5.46875C5.48025 5.46875 3.90625 7.04275 3.90625 8.98438C3.90625 10.926 5.48025 12.5 7.42188 12.5Z" fill="#005DC6"/>
<path d="M11.4258 14.4531C10.0508 13.7549 8.5332 13.4766 7.42188 13.4766C5.24512 13.4766 0.78125 14.8115 0.78125 17.4805V19.5312H8.10547V18.7466C8.10547 17.8188 8.49609 16.8887 9.17969 16.1133C9.7251 15.4941 10.4888 14.9194 11.4258 14.4531Z" fill="#005DC6"/>
<path d="M16.6016 14.0625C14.0591 14.0625 8.98438 15.6328 8.98438 18.75V21.0938H24.2188V18.75C24.2188 15.6328 19.144 14.0625 16.6016 14.0625Z" fill="#005DC6"/>
<path d="M16.6016 12.5C18.9747 12.5 20.8984 10.5762 20.8984 8.20312C20.8984 5.83003 18.9747 3.90625 16.6016 3.90625C14.2285 3.90625 12.3047 5.83003 12.3047 8.20312C12.3047 10.5762 14.2285 12.5 16.6016 12.5Z" fill="#005DC6"/>
</svg>
