<svg width="25" height="25" viewBox="0 0 25 25" fill="none" xmlns="http://www.w3.org/2000/svg">
<path d="M19.2383 23.4375C19.0739 23.4382 18.9134 23.3869 18.7798 23.291L12.5 18.7383L6.22024 23.291C6.08607 23.3883 5.92444 23.4405 5.7587 23.4399C5.59297 23.4393 5.43172 23.386 5.29826 23.2877C5.16481 23.1894 5.06607 23.0512 5.01632 22.8931C4.96657 22.735 4.96839 22.5652 5.02151 22.4082L7.47073 15.1538L1.12307 10.8008C0.985575 10.7066 0.881802 10.5709 0.826913 10.4136C0.772023 10.2562 0.768895 10.0854 0.817983 9.92615C0.867072 9.76688 0.965806 9.62749 1.09976 9.52833C1.23371 9.42917 1.39586 9.37545 1.56252 9.37501H9.39358L11.7569 2.10206C11.8078 1.94504 11.9071 1.80818 12.0406 1.71112C12.1741 1.61405 12.335 1.56177 12.5 1.56177C12.6651 1.56177 12.8259 1.61405 12.9594 1.71112C13.0929 1.80818 13.1923 1.94504 13.2432 2.10206L15.6065 9.37745H23.4375C23.6044 9.37737 23.7669 9.43072 23.9013 9.52969C24.0356 9.62865 24.1347 9.76804 24.1841 9.92742C24.2335 10.0868 24.2306 10.2578 24.1758 10.4154C24.1209 10.573 24.0171 10.7089 23.8794 10.8032L17.5293 15.1538L19.9771 22.4063C20.0167 22.5237 20.0279 22.6488 20.0096 22.7714C19.9913 22.894 19.9442 23.0105 19.872 23.1112C19.7998 23.212 19.7047 23.2941 19.5945 23.3509C19.4843 23.4076 19.3622 23.4373 19.2383 23.4375Z" fill="#FBD02F"/>
</svg>
